<svg width="32" height="39" viewBox="0 0 32 39" fill="none" xmlns="http://www.w3.org/2000/svg">
<path d="M2.5 22.6744C2.5 21.0873 3.23329 19.0104 4.65448 16.5959C6.04351 14.2361 7.93164 11.8161 9.87608 9.60844C11.8122 7.41023 13.7559 5.47652 15.2195 4.08967C15.4989 3.82497 15.7602 3.58071 16 3.35889C16.2398 3.58071 16.5011 3.82497 16.7805 4.08967C18.2441 5.47652 20.1878 7.41024 22.1239 9.60844C24.0684 11.8161 25.9565 14.2361 27.3455 16.5959C28.7667 19.0104 29.5 21.0873 29.5 22.6744C29.5 30.3578 23.4086 36.5 16 36.5C8.59139 36.5 2.5 30.3578 2.5 22.6744Z" fill="white" stroke="#557FE6" stroke-width="5"/>
</svg>
